<svg aria-hidden="true" style="position:absolute;width:0;height:0" xmlns="http://www.w3.org/2000/svg" overflow="hidden"><defs><symbol id="icon-pinterest-p" viewBox="0 0 20 28"><path d="M0 9.328C0 3.562 5.281 0 10.625 0 15.531 0 20 3.375 20 8.547c0 4.859-2.484 10.25-8.016 10.25-1.313 0-2.969-.656-3.609-1.875-1.188 4.703-1.094 5.406-3.719 9L4.437 26l-.141-.156c-.094-.984-.234-1.953-.234-2.938 0-3.187 1.469-7.797 2.188-10.891-.391-.797-.5-1.766-.5-2.641 0-1.578 1.094-3.578 2.875-3.578 1.313 0 2.016 1 2.016 2.234 0 2.031-1.375 3.938-1.375 5.906 0 1.344 1.109 2.281 2.406 2.281 3.594 0 4.703-5.187 4.703-7.953 0-3.703-2.625-5.719-6.172-5.719-4.125 0-7.313 2.969-7.313 7.156 0 2.016 1.234 3.047 1.234 3.531 0 .406-.297 1.844-.812 1.844-.078 0-.187-.031-.266-.047-2.234-.672-3.047-3.656-3.047-5.703z"/></symbol><symbol id="icon-checked" viewBox="0 0 32 32"><path d="M26.5 27h-3a.5.5 0 0 1 0-1H26v-2.5a.5.5 0 0 1 1 0v3a.5.5 0 0 1-.5.5zm0-6a.5.5 0 0 1-.5-.5v-3a.5.5 0 0 1 1 0v3a.5.5 0 0 1-.5.5zm0-6a.5.5 0 0 1-.5-.5v-3a.5.5 0 0 1 1 0v3a.5.5 0 0 1-.5.5zm0-6a.5.5 0 0 1-.5-.5V6h-2.5a.5.5 0 0 1 0-1h3a.5.5 0 0 1 .5.5v3a.5.5 0 0 1-.5.5zM14.666 21.053a.471.471 0 0 1-.668 0l-1.002-1.002c-.002-.003-.001-.007-.003-.009L9.805 16.83a.471.471 0 0 1 0-.668l1.002-1.003a.473.473 0 0 1 .669 0l2.86 2.881 6.014-6.013a.471.471 0 0 1 .668 0l1.002 1.003a.47.47 0 0 1 0 .669l-7.354 7.354zM20.5 6h-3a.5.5 0 0 1 0-1h3a.5.5 0 0 1 0 1zm-6 0h-3a.5.5 0 0 1 0-1h3a.5.5 0 0 1 0 1zm-6 21h-3a.5.5 0 0 1-.5-.5v-3a.5.5 0 0 1 1 0V26h2.5a.5.5 0 0 1 0 1zm0-21H6v2.5a.5.5 0 0 1-1 0v-3a.5.5 0 0 1 .5-.5h3a.5.5 0 0 1 0 1zm-3 5a.5.5 0 0 1 .5.5v3a.5.5 0 0 1-1 0v-3a.5.5 0 0 1 .5-.5zm0 6a.5.5 0 0 1 .5.5v3a.5.5 0 0 1-1 0v-3a.5.5 0 0 1 .5-.5zm6 9h3a.5.5 0 0 1 0 1h-3a.5.5 0 0 1 0-1zm6 0h3a.5.5 0 0 1 0 1h-3a.5.5 0 0 1 0-1z"/></symbol><symbol id="icon-book-open" viewBox="0 0 42 32"><path d="M37.5 1h-16c-.397 0-.74.136-1 .362a1.502 1.502 0 0 0-1-.362h-16C2.631 1 2 1.631 2 2.5v28c0 .869.631 1.5 1.5 1.5h16c.397 0 .74-.136 1-.362.26.226.603.362 1 .362h16c.869 0 1.5-.631 1.5-1.5v-28c0-.869-.631-1.5-1.5-1.5zm-18 30h-16c-.313 0-.5-.187-.5-.5v-28c0-.313.187-.5.5-.5h16c.313 0 .5.187.5.5v28c0 .313-.187.5-.5.5zm18.5-.5c0 .313-.187.5-.5.5h-16c-.313 0-.5-.187-.5-.5v-28c0-.313.187-.5.5-.5h16c.313 0 .5.187.5.5v28zM40.5 3a.5.5 0 0 0-.5.5v26a.5.5 0 0 0 1 0v-26a.5.5 0 0 0-.5-.5zM.5 30a.5.5 0 0 0 .5-.5v-26a.5.5 0 0 0-1 0v26a.5.5 0 0 0 .5.5zm17-20h-12a.5.5 0 0 0 0 1h12a.5.5 0 0 0 0-1zm0 4h-12a.5.5 0 0 0 0 1h12a.5.5 0 0 0 0-1zm0-8h-12a.5.5 0 0 0 0 1h12a.5.5 0 0 0 0-1zm0 12h-12a.5.5 0 0 0 0 1h12a.5.5 0 0 0 0-1zm0 4h-12a.5.5 0 0 0 0 1h12a.5.5 0 0 0 0-1zm0 4h-12a.5.5 0 0 0 0 1h12a.5.5 0 0 0 0-1zm18-16h-12a.5.5 0 0 0 0 1h12a.5.5 0 0 0 0-1zm0 4h-12a.5.5 0 0 0 0 1h12a.5.5 0 0 0 0-1zm0-8h-12a.5.5 0 0 0 0 1h12a.5.5 0 0 0 0-1zm0 12h-12a.5.5 0 0 0 0 1h12a.5.5 0 0 0 0-1zm0 4h-12a.5.5 0 0 0 0 1h12a.5.5 0 0 0 0-1zm0 4h-12a.5.5 0 0 0 0 1h12a.5.5 0 0 0 0-1z"/></symbol><symbol id="icon-computer-desktop" viewBox="0 0 20 20"><path d="M7 17H2a2 2 0 0 1-2-2V2C0 .9.9 0 2 0h16a2 2 0 0 1 2 2v13a2 2 0 0 1-2 2h-5l4 2v1H3v-1l4-2zM2 2v11h16V2H2z"/></symbol><symbol id="icon-alarm" viewBox="0 0 20 20"><path d="M10 2.5a8.75 8.75 0 1 0 .001 17.501A8.75 8.75 0 0 0 10 2.5zm0 15.781a7.031 7.031 0 1 1 0-14.062 7.031 7.031 0 0 1 0 14.062zm8.258-12.672a3.75 3.75 0 0 0-6.225-4.152 10.01 10.01 0 0 1 6.225 4.152zM7.967 1.457a3.75 3.75 0 1 0-6.224 4.152 10.01 10.01 0 0 1 6.225-4.152z"/><path d="M10 11.25v-5H8.75v6.25h5v-1.25z"/></symbol><symbol id="icon-home3" viewBox="0 0 32 32"><path d="M32 19l-6-6V4h-4v5l-6-6L0 19v1h4v10h10v-6h4v6h10V20h4z"/></symbol><symbol id="icon-alarm" viewBox="0 0 32 32"><path d="M16 4C8.268 4 2 10.268 2 18s6.268 14 14 14 14-6.268 14-14S23.732 4 16 4zm0 25.25C9.787 29.25 4.75 24.213 4.75 18S9.787 6.75 16 6.75 27.25 11.787 27.25 18 22.213 29.25 16 29.25zM29.212 8.974a6 6 0 0 0-9.959-6.643 16.011 16.011 0 0 1 9.96 6.643zM12.748 2.331a6 6 0 1 0-9.96 6.643 16.008 16.008 0 0 1 9.96-6.643z"/><path d="M16 18v-8h-2v10h8v-2z"/></symbol><symbol id="icon-stats-dots" viewBox="0 0 32 32"><path d="M4 28h28v4H0V0h4zm5-2a3 3 0 1 1 .262-5.988l3.225-5.375a3 3 0 1 1 5.026 0l3.225 5.375a3.238 3.238 0 0 1 .46-.005l5.324-9.316a3 3 0 1 1 2.28 1.302l-5.324 9.316a3 3 0 1 1-4.991.053l-3.225-5.375c-.086.007-.174.012-.262.012s-.176-.005-.262-.012l-3.225 5.375A3 3 0 0 1 9 25.999z"/></symbol><symbol id="icon-checkbox-unchecked" viewBox="0 0 32 32"><path d="M28 0H4C1.8 0 0 1.8 0 4v24c0 2.2 1.8 4 4 4h24c2.2 0 4-1.8 4-4V4c0-2.2-1.8-4-4-4zm0 28H4V4h24v24z"/></symbol><symbol id="icon-facebook" viewBox="0 0 32 32"><path d="M19 6h5V0h-5c-3.86 0-7 3.14-7 7v3H8v6h4v16h6V16h5l1-6h-6V7c0-.542.458-1 1-1z"/></symbol><symbol id="icon-instagram" viewBox="0 0 32 32"><path d="M16 2.881c4.275 0 4.781.019 6.462.094 1.563.069 2.406.331 2.969.55a4.952 4.952 0 0 1 1.837 1.194 5.015 5.015 0 0 1 1.2 1.838c.219.563.481 1.412.55 2.969.075 1.688.094 2.194.094 6.463s-.019 4.781-.094 6.463c-.069 1.563-.331 2.406-.55 2.969a4.94 4.94 0 0 1-1.194 1.837 5.02 5.02 0 0 1-1.837 1.2c-.563.219-1.413.481-2.969.55-1.688.075-2.194.094-6.463.094s-4.781-.019-6.463-.094c-1.563-.069-2.406-.331-2.969-.55a4.952 4.952 0 0 1-1.838-1.194 5.02 5.02 0 0 1-1.2-1.837c-.219-.563-.481-1.413-.55-2.969-.075-1.688-.094-2.194-.094-6.463s.019-4.781.094-6.463c.069-1.563.331-2.406.55-2.969a4.964 4.964 0 0 1 1.194-1.838 5.015 5.015 0 0 1 1.838-1.2c.563-.219 1.412-.481 2.969-.55 1.681-.075 2.188-.094 6.463-.094zM16 0c-4.344 0-4.887.019-6.594.094-1.7.075-2.869.35-3.881.744-1.056.412-1.95.956-2.837 1.85a7.833 7.833 0 0 0-1.85 2.831C.444 6.538.169 7.7.094 9.4.019 11.113 0 11.656 0 16s.019 4.887.094 6.594c.075 1.7.35 2.869.744 3.881.413 1.056.956 1.95 1.85 2.837a7.82 7.82 0 0 0 2.831 1.844c1.019.394 2.181.669 3.881.744 1.706.075 2.25.094 6.594.094s4.888-.019 6.594-.094c1.7-.075 2.869-.35 3.881-.744 1.05-.406 1.944-.956 2.831-1.844s1.438-1.781 1.844-2.831c.394-1.019.669-2.181.744-3.881.075-1.706.094-2.25.094-6.594s-.019-4.887-.094-6.594c-.075-1.7-.35-2.869-.744-3.881a7.506 7.506 0 0 0-1.831-2.844A7.82 7.82 0 0 0 26.482.843C25.463.449 24.301.174 22.601.099c-1.712-.081-2.256-.1-6.6-.1z"/><path d="M16 7.781c-4.537 0-8.219 3.681-8.219 8.219s3.681 8.219 8.219 8.219 8.219-3.681 8.219-8.219A8.221 8.221 0 0 0 16 7.781zm0 13.55a5.331 5.331 0 1 1 0-10.663 5.331 5.331 0 0 1 0 10.663zM26.462 7.456a1.919 1.919 0 1 1-3.838 0 1.919 1.919 0 0 1 3.838 0z"/></symbol><symbol id="icon-twitter" viewBox="0 0 32 32"><path d="M32 7.075a12.941 12.941 0 0 1-3.769 1.031 6.601 6.601 0 0 0 2.887-3.631 13.21 13.21 0 0 1-4.169 1.594A6.565 6.565 0 0 0 22.155 4a6.563 6.563 0 0 0-6.563 6.563c0 .512.056 1.012.169 1.494A18.635 18.635 0 0 1 2.23 5.195a6.56 6.56 0 0 0-.887 3.3 6.557 6.557 0 0 0 2.919 5.463 6.565 6.565 0 0 1-2.975-.819v.081a6.565 6.565 0 0 0 5.269 6.437 6.574 6.574 0 0 1-2.968.112 6.588 6.588 0 0 0 6.131 4.563 13.17 13.17 0 0 1-9.725 2.719 18.568 18.568 0 0 0 10.069 2.95c12.075 0 18.681-10.006 18.681-18.681 0-.287-.006-.569-.019-.85A13.216 13.216 0 0 0 32 7.076z"/></symbol></defs></svg>