<!-- Generated by IcoMoon.io -->
<svg version="1.1" xmlns="http://www.w3.org/2000/svg" width="20" height="28" viewBox="0 0 20 28">
<title>pinterest-p</title>
<path d="M0 9.328c0-5.766 5.281-9.328 10.625-9.328 4.906 0 9.375 3.375 9.375 8.547 0 4.859-2.484 10.25-8.016 10.25-1.313 0-2.969-0.656-3.609-1.875-1.188 4.703-1.094 5.406-3.719 9l-0.219 0.078-0.141-0.156c-0.094-0.984-0.234-1.953-0.234-2.938 0-3.187 1.469-7.797 2.188-10.891-0.391-0.797-0.5-1.766-0.5-2.641 0-1.578 1.094-3.578 2.875-3.578 1.313 0 2.016 1 2.016 2.234 0 2.031-1.375 3.938-1.375 5.906 0 1.344 1.109 2.281 2.406 2.281 3.594 0 4.703-5.187 4.703-7.953 0-3.703-2.625-5.719-6.172-5.719-4.125 0-7.313 2.969-7.313 7.156 0 2.016 1.234 3.047 1.234 3.531 0 0.406-0.297 1.844-0.812 1.844-0.078 0-0.187-0.031-0.266-0.047-2.234-0.672-3.047-3.656-3.047-5.703z"></path>
</svg>
